<svg width="471" height="364" viewBox="0 0 471 364" fill="none" xmlns="http://www.w3.org/2000/svg">
<path d="M142.975 334.376C102.107 376.036 32.8912 375.87 13.5611 320.347C9.77659 309.476 6.7507 298.299 4.52517 286.894C-4.56164 240.326 0.102037 192.058 17.9265 148.192C35.7509 104.328 65.9355 66.8355 104.663 40.4574C143.392 14.0793 188.923 -2.03383e-06 235.501 0C282.078 2.03384e-06 327.61 14.0793 366.337 40.4574C405.065 66.8355 435.249 104.328 453.074 148.194C470.898 192.058 475.561 240.326 466.475 286.894C464.25 298.299 461.224 309.476 457.438 320.347C438.108 375.87 368.893 376.036 328.024 334.376L264.938 270.068C258.91 263.924 259.533 253.791 261.196 245.27C262.206 240.09 261.687 234.72 259.704 229.84C257.721 224.96 254.364 220.789 250.056 217.855C245.747 214.921 240.682 213.354 235.501 213.354C230.319 213.354 225.254 214.921 220.946 217.855C216.636 220.789 213.279 224.96 211.296 229.84C209.313 234.72 208.794 240.09 209.805 245.27C211.468 253.791 212.089 263.924 206.062 270.068L142.975 334.376Z" fill="url(#paint0_linear_15_245)"/>
<defs>
<linearGradient id="paint0_linear_15_245" x1="449.563" y1="120.03" x2="31.5511" y2="120.03" gradientUnits="userSpaceOnUse">
<stop stop-color="#64C2DB"/>
<stop offset="0.510417" stop-color="#7476ED"/>
<stop offset="1" stop-color="#E56F8C"/>
</linearGradient>
</defs>
</svg>
